HIERARCHY
ROOT pelvis
{
	OFFSET 0.031295 101.661964 1.536467
	CHANNELS 6 Xposition Yposition Zposition Xrotation Yrotation Zrotation
	JOINT spine01
	{
		OFFSET 0.403514 10.170219 0.293458
		CHANNELS 6 Xposition Yposition Zposition Xrotation Yrotation Zrotation
		JOINT spine02
		{
			OFFSET 0.172284 10.100235 -0.796211
			CHANNELS 6 Xposition Yposition Zposition Xrotation Yrotation Zrotation
			JOINT spine03
			{
				OFFSET 0.038693 9.134491 -1.120589
				CHANNELS 6 Xposition Yposition Zposition Xrotation Yrotation Zrotation
				JOINT neck
				{
					OFFSET -0.096090 16.749695 -1.927454
					CHANNELS 6 Xposition Yposition Zposition Xrotation Yrotation Zrotation
					JOINT head
					{
						OFFSET 0.374543 9.550110 1.999603
						CHANNELS 6 Xposition Yposition Zposition Xrotation Yrotation Zrotation
						End Site
						{
							OFFSET 0.000000 1.975693 0.000000
						}
					}
				}
				JOINT clavicle_L
				{
					OFFSET 4.418678 11.017120 -2.590022
					CHANNELS 6 Xposition Yposition Zposition Xrotation Yrotation Zrotation
					JOINT upperarm_L
					{
						OFFSET 10.208733 -3.595703 -0.555753
						CHANNELS 6 Xposition Yposition Zposition Xrotation Yrotation Zrotation
						JOINT lowerarm_L
						{
							OFFSET 10.181953 -25.891205 1.058981
							CHANNELS 6 Xposition Yposition Zposition Xrotation Yrotation Zrotation
							JOINT hand_L
							{
								OFFSET 1.662085 -24.519531 14.090791
								CHANNELS 6 Xposition Yposition Zposition Xrotation Yrotation Zrotation
								JOINT thumb01_L
								{
									OFFSET -2.766129 -1.464409 2.441634
									CHANNELS 6 Xposition Yposition Zposition Xrotation Yrotation Zrotation
									JOINT thumb02_L
									{
										OFFSET -2.234051 -2.826782 2.098602
										CHANNELS 6 Xposition Yposition Zposition Xrotation Yrotation Zrotation
										JOINT thumb03_L
										{
											OFFSET -1.514948 -2.612640 1.614424
											CHANNELS 6 Xposition Yposition Zposition Xrotation Yrotation Zrotation
											End Site
											{
												OFFSET 0.000000 1.975693 0.000000
											}
										}
									}
								}
								JOINT index00_L
								{
									OFFSET -1.040825 -5.587326 7.486865
									CHANNELS 6 Xposition Yposition Zposition Xrotation Yrotation Zrotation
									JOINT index01_L
									{
										OFFSET -1.566196 -3.203362 0.895214
										CHANNELS 6 Xposition Yposition Zposition Xrotation Yrotation Zrotation
										JOINT index02_L
										{
											OFFSET -1.922718 -0.101212 -2.145967
											CHANNELS 6 Xposition Yposition Zposition Xrotation Yrotation Zrotation
											JOINT index03_L
											{
												OFFSET -1.595675 -0.084000 -1.780951
												CHANNELS 6 Xposition Yposition Zposition Xrotation Yrotation Zrotation
												End Site
												{
													OFFSET 0.000000 1.975693 0.000000
												}
											}
										}
									}
								}
								JOINT middle00_L
								{
									OFFSET 1.017431 -6.546463 6.855241
									CHANNELS 6 Xposition Yposition Zposition Xrotation Yrotation Zrotation
									JOINT middle01_L
									{
										OFFSET -2.450264 -2.769989 -0.006073
										CHANNELS 6 Xposition Yposition Zposition Xrotation Yrotation Zrotation
										JOINT middle02_L
										{
											OFFSET -0.860657 1.629982 -2.304394
											CHANNELS 6 Xposition Yposition Zposition Xrotation Yrotation Zrotation
											JOINT middle03_L
											{
												OFFSET -0.826532 1.565361 -2.213027
												CHANNELS 6 Xposition Yposition Zposition Xrotation Yrotation Zrotation
												End Site
												{
													OFFSET 0.000000 1.975693 0.000000
												}
											}
										}
									}
								}
								JOINT ring00_L
								{
									OFFSET 2.319410 -7.079086 5.556918
									CHANNELS 6 Xposition Yposition Zposition Xrotation Yrotation Zrotation
									JOINT ring01_L
									{
										OFFSET -2.080965 -2.369385 -0.057785
										CHANNELS 6 Xposition Yposition Zposition Xrotation Yrotation Zrotation
										JOINT ring02_L
										{
											OFFSET -0.921402 1.895218 -2.046762
											CHANNELS 6 Xposition Yposition Zposition Xrotation Yrotation Zrotation
											JOINT ring03_L
											{
												OFFSET -0.830381 1.708000 -1.844574
												CHANNELS 6 Xposition Yposition Zposition Xrotation Yrotation Zrotation
												End Site
												{
													OFFSET 0.000000 1.975693 0.000000
												}
											}
										}
									}
								}
								JOINT pinky00_L
								{
									OFFSET 3.346634 -7.468887 3.604408
									CHANNELS 6 Xposition Yposition Zposition Xrotation Yrotation Zrotation
									JOINT pinky01_L
									{
										OFFSET -2.708309 -2.329971 -0.443076
										CHANNELS 6 Xposition Yposition Zposition Xrotation Yrotation Zrotation
										JOINT pinky02_L
										{
											OFFSET -0.699556 1.427353 -1.393963
											CHANNELS 6 Xposition Yposition Zposition Xrotation Yrotation Zrotation
											JOINT pinky03_L
											{
												OFFSET -0.653728 1.333847 -1.302645
												CHANNELS 6 Xposition Yposition Zposition Xrotation Yrotation Zrotation
												End Site
												{
													OFFSET 0.000000 1.975693 0.000000
												}
											}
										}
									}
								}
							}
						}
					}
				}
				JOINT clavicle_R
				{
					OFFSET -4.694508 11.046066 -1.885919
					CHANNELS 6 Xposition Yposition Zposition Xrotation Yrotation Zrotation
					JOINT upperarm_R
					{
						OFFSET -10.203596 -3.635376 -0.368164
						CHANNELS 6 Xposition Yposition Zposition Xrotation Yrotation Zrotation
						JOINT lowerarm_R
						{
							OFFSET -8.583656 -25.925476 -5.416519
							CHANNELS 6 Xposition Yposition Zposition Xrotation Yrotation Zrotation
							JOINT hand_R
							{
								OFFSET -1.804697 -27.704330 5.633170
								CHANNELS 6 Xposition Yposition Zposition Xrotation Yrotation Zrotation
								JOINT pinky00_R
								{
									OFFSET -2.830883 -8.446587 -0.773602
									CHANNELS 6 Xposition Yposition Zposition Xrotation Yrotation Zrotation
									JOINT pinky01_R
									{
										OFFSET 1.946447 -3.025932 -0.122695
										CHANNELS 6 Xposition Yposition Zposition Xrotation Yrotation Zrotation
										JOINT pinky02_R
										{
											OFFSET 1.500854 0.902176 -1.184628
											CHANNELS 6 Xposition Yposition Zposition Xrotation Yrotation Zrotation
											JOINT pinky03_R
											{
												OFFSET 1.402534 0.843071 -1.107024
												CHANNELS 6 Xposition Yposition Zposition Xrotation Yrotation Zrotation
												End Site
												{
													OFFSET 0.000000 1.975693 0.000000
												}
											}
										}
									}
								}
								JOINT ring00_R
								{
									OFFSET -2.237106 -8.920288 1.334079
									CHANNELS 6 Xposition Yposition Zposition Xrotation Yrotation Zrotation
									JOINT ring01_R
									{
										OFFSET 1.766579 -2.592438 -0.325883
										CHANNELS 6 Xposition Yposition Zposition Xrotation Yrotation Zrotation
										JOINT ring02_R
										{
											OFFSET 2.224691 1.135796 -1.546207
											CHANNELS 6 Xposition Yposition Zposition Xrotation Yrotation Zrotation
											JOINT ring03_R
											{
												OFFSET 2.004927 1.023598 -1.393466
												CHANNELS 6 Xposition Yposition Zposition Xrotation Yrotation Zrotation
												End Site
												{
													OFFSET 0.000000 1.975693 0.000000
												}
											}
										}
									}
								}
								JOINT middle00_R
								{
									OFFSET -1.279213 -8.960251 2.990981
									CHANNELS 6 Xposition Yposition Zposition Xrotation Yrotation Zrotation
									JOINT middle01_R
									{
										OFFSET 2.065887 -3.029488 -0.480600
										CHANNELS 6 Xposition Yposition Zposition Xrotation Yrotation Zrotation
										JOINT middle02_R
										{
											OFFSET 2.514072 0.879761 -1.270130
											CHANNELS 6 Xposition Yposition Zposition Xrotation Yrotation Zrotation
											JOINT middle03_R
											{
												OFFSET 2.414394 0.844879 -1.219770
												CHANNELS 6 Xposition Yposition Zposition Xrotation Yrotation Zrotation
												End Site
												{
													OFFSET 0.000000 1.975693 0.000000
												}
											}
										}
									}
								}
								JOINT index00_R
								{
									OFFSET 0.472795 -8.283737 4.415015
									CHANNELS 6 Xposition Yposition Zposition Xrotation Yrotation Zrotation
									JOINT index01_R
									{
										OFFSET 1.551720 -3.322227 -0.266232
										CHANNELS 6 Xposition Yposition Zposition Xrotation Yrotation Zrotation
										JOINT index02_R
										{
											OFFSET 2.555494 0.058037 -1.333540
											CHANNELS 6 Xposition Yposition Zposition Xrotation Yrotation Zrotation
											JOINT index03_R
											{
												OFFSET 2.120817 0.048164 -1.106712
												CHANNELS 6 Xposition Yposition Zposition Xrotation Yrotation Zrotation
												End Site
												{
													OFFSET 0.000000 1.975693 0.000000
												}
											}
										}
									}
								}
								JOINT thumb01_R
								{
									OFFSET 2.463066 -2.260330 2.137572
									CHANNELS 6 Xposition Yposition Zposition Xrotation Yrotation Zrotation
									JOINT thumb02_R
									{
										OFFSET 1.613766 -3.416832 1.762615
										CHANNELS 6 Xposition Yposition Zposition Xrotation Yrotation Zrotation
										JOINT thumb03_R
										{
											OFFSET 1.228722 -3.175117 0.368207
											CHANNELS 6 Xposition Yposition Zposition Xrotation Yrotation Zrotation
											End Site
											{
												OFFSET 0.000000 1.975693 0.000000
											}
										}
									}
								}
							}
						}
					}
				}
			}
		}
	}
	JOINT thigh_L
	{
		OFFSET 7.851649 -7.030708 -2.105456
		CHANNELS 6 Xposition Yposition Zposition Xrotation Yrotation Zrotation
		JOINT calf_L
		{
			OFFSET 4.935677 -40.151249 18.230156
			CHANNELS 6 Xposition Yposition Zposition Xrotation Yrotation Zrotation
			JOINT foot_L
			{
				OFFSET -3.928970 -32.627956 -30.045223
				CHANNELS 6 Xposition Yposition Zposition Xrotation Yrotation Zrotation
				JOINT toes_L
				{
					OFFSET 0.879377 -13.470181 2.947556
					CHANNELS 6 Xposition Yposition Zposition Xrotation Yrotation Zrotation
					End Site
					{
						OFFSET 0.000000 1.975696 0.000000
					}
				}
			}
		}
	}
	JOINT thigh_R
	{
		OFFSET -8.532416 -6.403770 -1.304555
		CHANNELS 6 Xposition Yposition Zposition Xrotation Yrotation Zrotation
		JOINT calf_R
		{
			OFFSET 1.270800 -43.322933 9.504332
			CHANNELS 6 Xposition Yposition Zposition Xrotation Yrotation Zrotation
			JOINT foot_R
			{
				OFFSET 2.680509 -43.191147 -10.491222
				CHANNELS 6 Xposition Yposition Zposition Xrotation Yrotation Zrotation
				JOINT toes_R
				{
					OFFSET 0.531110 -8.728668 10.697453
					CHANNELS 6 Xposition Yposition Zposition Xrotation Yrotation Zrotation
					End Site
					{
						OFFSET 0.000000 1.975696 0.000000
					}
				}
			}
		}
	}
}
MOTION
Frames: 4
Frame Time: 0.033333
3.799636 102.740990 1.629315 0.190127 -1.551796 0.974536 0.403514 10.170213 0.293458 -0.123794 -0.232679 -1.387054 0.172283 10.100186 -0.796211 -0.162118 -0.649995 -0.931968 0.038693 9.134508 -1.120588 -0.167455 -0.644331 -0.934980 -0.096090 16.749695 -1.927453 3.359708 0.661983 1.401604 0.374542 9.550117 1.999604 -1.205874 3.490594 1.766125 4.418675 11.017103 -2.590023 -0.237915 -1.156234 -0.262499 10.208735 -3.595750 -0.555755 10.427599 2.702558 -4.103198 10.181947 -25.891148 1.058982 -1.481366 2.349973 4.158747 1.662082 -24.519533 14.090793 17.464650 -1.568495 -2.004807 -2.766128 -1.464386 2.441629 0.000003 -0.000010 0.000018 -2.234053 -2.826758 2.098593 0.000012 0.000014 -0.000066 -1.514939 -2.612649 1.614433 0.000003 0.000007 0.000001 -1.040821 -5.587334 7.486866 -5.791589 0.994525 1.812672 -1.566202 -3.203354 0.895213 -12.018485 6.326180 10.568581 -1.922713 -0.101219 -2.145964 -0.000001 -0.000002 -0.000001 -1.595679 -0.083992 -1.780950 -0.000000 -0.000003 -0.000000 1.017429 -6.546461 6.855236 -5.117868 1.517795 2.118004 -2.450264 -2.769973 -0.006076 -11.029382 7.749388 10.797965 -0.860658 1.629981 -2.304396 -0.000001 0.000005 -0.000002 -0.826534 1.565346 -2.213023 -0.000001 0.000000 -0.000000 2.319410 -7.079077 5.556912 -4.542083 0.683685 3.250898 -2.080962 -2.369390 -0.057785 -9.911953 7.038621 12.216219 -0.921392 1.895202 -2.046752 0.000001 -0.000002 -0.000002 -0.830383 1.708000 -1.844572 0.000000 -0.000002 0.000001 3.346628 -7.468873 3.604406 -4.019017 0.355220 3.829754 -2.708304 -2.329968 -0.443094 -8.319212 7.605544 13.016719 -0.699544 1.427345 -1.393962 -0.000001 0.000005 -0.000001 -0.653732 1.333840 -1.302647 -0.000001 0.000003 -0.000001 -4.694505 11.046064 -1.885919 0.211210 -1.255486 -0.176626 -10.203601 -3.635355 -0.368166 -0.870531 11.021883 9.332087 -8.583654 -25.925480 -5.416517 -3.792954 1.938022 -15.634945 -1.804696 -27.704321 5.633168 -16.156027 -8.783025 -3.385077 -2.830876 -8.446558 -0.773602 4.112887 2.671774 7.847910 1.946439 -3.025930 -0.122697 3.655365 3.546793 7.318570 1.500854 0.902184 -1.184630 0.000000 -0.000007 -0.000000 1.402531 0.843079 -1.107021 -0.000001 0.000005 -0.000000 -2.237108 -8.920276 1.334076 4.183421 2.238665 8.440550 1.766578 -2.592440 -0.325887 4.159794 2.559704 7.818933 2.224688 1.135803 -1.546207 -0.000000 -0.000003 0.000001 2.004924 1.023583 -1.393467 0.000000 0.000000 0.000000 -1.279215 -8.960238 2.990978 4.785851 2.184131 10.126910 2.065884 -3.029477 -0.480598 3.772348 0.996032 8.089649 2.514073 0.879776 -1.270133 0.000001 0.000000 -0.000001 2.414391 0.844887 -1.219770 -0.000000 -0.000002 -0.000001 0.472804 -8.283743 4.415012 6.242891 2.662276 11.858953 1.551720 -3.322222 -0.266232 4.095100 0.920155 7.963735 2.555487 0.058045 -1.333538 0.000001 -0.000007 -0.000000 2.120816 0.048157 -1.106709 0.000001 0.000000 -0.000000 2.463063 -2.260336 2.137570 -0.873455 -1.395774 2.921809 1.613767 -3.416825 1.762616 1.106200 -0.943280 -0.090069 1.228720 -3.175125 0.368210 0.000001 0.000000 -0.000000 7.851649 -7.030706 -2.105454 15.598200 -0.257638 -8.288788 4.935677 -40.151279 18.230165 -43.649003 -13.074982 0.241738 -3.928971 -32.627960 -30.045223 -7.792623 -4.034162 5.512919 0.879377 -13.470181 2.947556 -2.490590 7.978960 -0.955976 -8.532414 -6.403753 -1.304557 -8.491730 1.376799 -5.670803 1.270799 -43.322926 9.504333 30.596942 -8.992866 0.850863 2.680507 -43.191147 -10.491223 10.830319 1.773105 -6.476539 0.531108 -8.728668 10.697453 -1.947975 -2.382483 2.432822 
3.894193 102.874924 1.043858 0.597299 0.261581 1.433713 0.403514 10.170200 0.293459 -0.103192 -0.680115 -1.420351 0.172283 10.100214 -0.796211 -0.097990 -1.518650 -0.913023 0.038694 9.134511 -1.120588 -0.095814 -1.512518 -0.923356 -0.096090 16.749716 -1.927452 3.311586 0.851328 1.332854 0.374543 9.550108 1.999604 -1.700818 3.719233 2.079548 4.418680 11.017119 -2.590023 -0.379622 -1.669535 0.418936 10.208739 -3.595750 -0.555755 9.270823 1.165599 -2.337359 10.181951 -25.891180 1.058985 -7.531420 -0.247604 1.716051 1.662081 -24.519550 14.090786 17.530072 0.100001 -4.256612 -2.766131 -1.464401 2.441636 0.000001 0.000005 0.000000 -2.234051 -2.826779 2.098590 -0.000006 0.000041 -0.000015 -1.514940 -2.612650 1.614433 0.000004 0.000003 -0.000001 -1.040823 -5.587344 7.486863 -6.223888 1.242867 2.145163 -1.566193 -3.203365 0.895212 -11.865682 6.263333 10.432515 -1.922720 -0.101219 -2.145965 -0.000002 0.000003 -0.000001 -1.595679 -0.084007 -1.780951 0.000000 -0.000003 0.000000 1.017427 -6.546466 6.855237 -5.511920 1.799446 2.468808 -2.450265 -2.770000 -0.006077 -10.886512 7.668651 10.657578 -0.860654 1.629982 -2.304396 -0.000000 0.000003 -0.000003 -0.826532 1.565345 -2.213027 0.000000 -0.000002 0.000001 2.319410 -7.079091 5.556921 -4.899393 0.913747 3.665771 -2.080964 -2.369406 -0.057786 -9.782612 6.966386 12.060645 -0.921395 1.895194 -2.046753 0.000002 -0.000003 -0.000000 -0.830388 1.707985 -1.844570 -0.000001 -0.000003 0.000001 3.346619 -7.468878 3.604408 -4.343613 0.565049 4.277664 -2.708298 -2.329971 -0.443086 -8.207813 7.525275 12.851651 -0.699553 1.427344 -1.393960 0.000000 0.000002 -0.000002 -0.653732 1.333848 -1.302645 -0.000001 0.000000 -0.000000 -4.694505 11.046065 -1.885919 0.517209 -2.213824 0.689262 -10.203597 -3.635381 -0.368164 -0.380027 9.711539 8.139629 -8.583657 -25.925470 -5.416518 2.556291 -0.358536 -14.354833 -1.804690 -27.704334 5.633168 -15.966178 -9.870080 -1.675302 -2.830884 -8.446548 -0.773602 3.677455 2.351080 7.046799 1.946446 -3.025933 -0.122690 3.149253 2.973072 6.201250 1.500852 0.902191 -1.184629 0.000001 -0.000002 -0.000001 1.402535 0.843063 -1.107025 -0.000001 0.000003 -0.000001 -2.237118 -8.920283 1.334075 3.761936 1.962477 7.556009 1.766577 -2.592415 -0.325886 3.499550 2.088751 6.519933 2.224687 1.135788 -1.546206 0.000000 -0.000002 0.000001 2.004924 1.023590 -1.393468 -0.000000 -0.000003 0.000001 -1.279213 -8.960220 2.990980 4.363913 1.950870 9.171642 2.065893 -3.029492 -0.480603 3.269903 0.829674 7.025535 2.514076 0.879753 -1.270133 0.000001 0.000000 -0.000000 2.414397 0.844887 -1.219772 0.000000 0.000000 -0.000000 0.472791 -8.283725 4.415012 5.182443 2.107402 9.819731 1.551714 -3.322186 -0.266228 3.621263 0.792380 7.043839 2.555490 0.058037 -1.333540 0.000001 -0.000003 0.000000 2.120818 0.048157 -1.106712 0.000001 0.000002 -0.000001 2.463063 -2.260323 2.137572 -1.457248 -3.274777 0.719147 1.613773 -3.416817 1.762618 2.433067 -1.477102 -0.392487 1.228722 -3.175118 0.368212 0.000001 -0.000005 0.000001 7.851651 -7.030687 -2.105457 20.582925 0.129272 -9.058675 4.935678 -40.151264 18.230165 -47.878298 -15.507065 -1.473528 -3.928975 -32.627956 -30.045227 -8.491743 -4.054925 5.697351 0.879376 -13.470182 2.947556 -2.939254 7.635726 -0.760480 -8.532413 -6.403772 -1.304559 -13.249957 2.107128 -5.962608 1.270797 -43.322926 9.504325 22.956609 -10.460392 0.408603 2.680508 -43.191143 -10.491221 7.218231 1.580507 -5.210260 0.531108 -8.728667 10.697451 -2.641330 -1.773840 1.898084 
3.936077 102.360428 0.706773 0.888464 1.539887 2.169193 0.403515 10.170217 0.293459 -0.083970 -0.986023 -1.484385 0.172284 10.100216 -0.796212 -0.046132 -2.093041 -1.005866 0.038694 9.134504 -1.120588 -0.040284 -2.085715 -1.021124 -0.096089 16.749659 -1.927453 3.422818 1.000403 1.185053 0.374542 9.550121 1.999604 -2.385664 3.826792 2.384580 4.418676 11.017110 -2.590022 -0.370136 -1.429945 1.257675 10.208733 -3.595744 -0.555758 7.259321 -0.716999 -0.822146 10.181957 -25.891174 1.058976 -13.528141 -2.009613 -0.740679 1.662083 -24.519526 14.090790 17.669460 1.853618 -5.849087 -2.766131 -1.464394 2.441641 0.000001 -0.000014 0.000018 -2.234053 -2.826775 2.098595 0.000001 0.000009 -0.000001 -1.514936 -2.612656 1.614431 0.000001 0.000007 -0.000000 -1.040825 -5.587358 7.486866 -6.669099 1.515361 2.509392 -1.566192 -3.203373 0.895214 -11.694436 6.192354 10.280031 -1.922715 -0.101211 -2.145966 -0.000001 -0.000002 -0.000001 -1.595675 -0.083992 -1.780946 0.000001 -0.000002 -0.000001 1.017428 -6.546467 6.855243 -5.919409 2.105672 2.851324 -2.450263 -2.769969 -0.006076 -10.726373 7.577682 10.500407 -0.860655 1.629982 -2.304394 -0.000001 -0.000002 -0.000002 -0.826537 1.565346 -2.213030 -0.000001 -0.000003 -0.000000 2.319402 -7.079101 5.556922 -5.270034 1.168355 4.111657 -2.080969 -2.369397 -0.057777 -9.637700 6.884788 11.886274 -0.921396 1.895203 -2.046754 0.000001 -0.000005 -0.000000 -0.830383 1.708001 -1.844574 -0.000000 -0.000002 -0.000001 3.346630 -7.468888 3.604414 -4.681111 0.799544 4.756784 -2.708302 -2.329972 -0.443082 -8.083085 7.434862 12.666672 -0.699553 1.427345 -1.393960 0.000001 0.000003 -0.000002 -0.653726 1.333832 -1.302641 -0.000000 -0.000003 0.000000 -4.694504 11.046081 -1.885918 0.735457 -2.189017 2.211134 -10.203594 -3.635432 -0.368168 3.174905 7.950722 5.737427 -8.583664 -25.925497 -5.416518 3.849211 -0.374515 -13.020286 -1.804697 -27.704344 5.633169 -13.804430 -12.058650 -0.112390 -2.830887 -8.446580 -0.773603 2.846893 1.780847 5.093850 1.946440 -3.025907 -0.122696 2.292028 2.048273 4.342299 1.500854 0.902184 -1.184629 0.000002 -0.000003 -0.000001 1.402532 0.843086 -1.107027 0.000000 0.000005 0.000000 -2.237106 -8.920285 1.334076 4.204671 1.578488 4.641085 1.766579 -2.592431 -0.325884 2.373823 1.332705 4.333794 2.224692 1.135788 -1.546206 0.000001 -0.000007 -0.000000 2.004927 1.023598 -1.393466 -0.000000 -0.000003 -0.000000 -1.279206 -8.960228 2.990975 3.461989 1.508574 7.302827 2.065886 -3.029479 -0.480596 2.257899 0.524038 4.939659 2.514072 0.879768 -1.270130 0.000001 0.000003 0.000000 2.414394 0.844894 -1.219772 -0.000000 -0.000002 -0.000001 0.472799 -8.283724 4.415010 3.041763 1.114119 5.558496 1.551717 -3.322211 -0.266229 2.698334 0.557521 5.281733 2.555486 0.058037 -1.333539 0.000001 -0.000002 0.000000 2.120815 0.048149 -1.106713 0.000000 -0.000005 0.000000 2.463058 -2.260325 2.137572 -1.938499 -4.553658 -0.753532 1.613771 -3.416825 1.762610 2.360820 -0.570288 -0.603058 1.228718 -3.175111 0.368212 0.000001 0.000003 0.000002 7.851648 -7.030716 -2.105454 25.588914 0.579928 -9.969255 4.935676 -40.151260 18.230156 -51.470420 -17.882547 -3.307123 -3.928972 -32.627960 -30.045227 -10.295730 -4.521787 6.447192 0.879378 -13.470182 2.947555 -3.036754 7.978385 -0.838068 -8.532413 -6.403755 -1.304563 -16.193458 2.898086 -6.597678 1.270802 -43.322926 9.504331 13.034452 -11.279383 -0.828653 2.680507 -43.191139 -10.491220 4.762443 1.344377 -4.405493 0.531111 -8.728668 10.697453 -5.182783 -1.624101 2.084592 
3.983355 101.323830 0.440786 0.986327 2.291234 2.830291 0.403514 10.170196 0.293459 0.003323 -1.185516 -1.440924 0.172284 10.100200 -0.796212 0.136189 -2.452225 -0.947438 0.038694 9.134495 -1.120588 0.145570 -2.443752 -0.967472 -0.096090 16.749723 -1.927454 3.134621 1.237405 0.378164 0.374542 9.550145 1.999604 -2.790768 3.720309 2.820812 4.418680 11.017138 -2.590022 -0.476753 -1.968996 1.261049 10.208739 -3.595714 -0.555753 5.150743 -1.705606 0.896369 10.181955 -25.891172 1.058981 -19.304237 -2.764107 -2.760289 1.662092 -24.519526 14.090793 17.269650 3.831497 -6.737095 -2.766129 -1.464387 2.441641 0.000002 -0.000012 0.000017 -2.234054 -2.826790 2.098596 0.000000 0.000007 -0.000001 -1.514943 -2.612649 1.614429 0.000002 0.000002 0.000001 -1.040822 -5.587345 7.486867 -7.086533 1.788786 2.873160 -1.566194 -3.203342 0.895212 -11.481256 6.103258 10.090325 -1.922720 -0.101211 -2.145968 -0.000002 -0.000002 -0.000002 -1.595676 -0.084000 -1.780950 0.000001 -0.000002 0.000000 1.017427 -6.546466 6.855233 -6.303290 2.409918 3.231929 -2.450270 -2.769988 -0.006079 -10.527319 7.463469 10.304820 -0.860653 1.629958 -2.304394 -0.000001 0.000002 -0.000001 -0.826529 1.565353 -2.213022 -0.000000 0.000000 -0.000000 2.319407 -7.079083 5.556923 -5.620623 1.425533 4.549147 -2.080965 -2.369409 -0.057781 -9.457449 6.782689 11.669165 -0.921398 1.895187 -2.046761 0.000001 -0.000002 0.000001 -0.830383 1.707992 -1.844578 0.000000 0.000000 0.000001 3.346626 -7.468874 3.604412 -5.001223 1.038535 5.224463 -2.708299 -2.329967 -0.443084 -7.928035 7.321600 12.436346 -0.699548 1.427329 -1.393959 0.000000 0.000003 -0.000003 -0.653726 1.333839 -1.302645 0.000000 -0.000002 0.000001 -4.694506 11.046095 -1.885919 0.780626 -2.620934 1.921269 -10.203604 -3.635408 -0.368169 4.850119 7.708774 4.804927 -8.583655 -25.925486 -5.416520 7.587935 -0.407479 -10.694007 -1.804692 -27.704315 5.633174 -13.368849 -13.641476 0.843643 -2.830884 -8.446568 -0.773602 1.585613 0.984453 2.538383 1.946441 -3.025936 -0.122692 1.179981 0.967397 2.086150 1.500852 0.902184 -1.184629 0.000002 -0.000003 -0.000001 1.402534 0.843071 -1.107029 0.000000 0.000005 0.000000 -2.237105 -8.920288 1.334072 4.809763 0.932313 0.828572 1.766581 -2.592432 -0.325882 0.986600 0.498974 1.722951 2.224687 1.135795 -1.546203 0.000001 -0.000002 0.000000 2.004929 1.023605 -1.393468 0.000000 -0.000003 0.000000 -1.279206 -8.960226 2.990975 1.968199 0.813677 4.175054 2.065883 -3.029501 -0.480599 0.986111 0.196073 2.284665 2.514071 0.879746 -1.270130 0.000001 0.000000 -0.000000 2.414393 0.844887 -1.219770 -0.000000 0.000003 -0.000000 0.472802 -8.283729 4.415012 -0.978180 -0.285860 -2.095254 1.551714 -3.322203 -0.266227 1.497457 0.288420 2.963783 2.555489 0.058052 -1.333538 0.000000 -0.000002 -0.000000 2.120815 0.048149 -1.106710 -0.000000 0.000000 0.000000 2.463064 -2.260332 2.137571 -2.190453 -4.759479 -0.632169 1.613767 -3.416824 1.762618 2.273003 0.122792 -0.726677 1.228716 -3.175112 0.368207 0.000034 -0.000017 -0.000042 7.851649 -7.030712 -2.105459 29.488280 1.446563 -10.444344 4.935673 -40.151253 18.230160 -52.358386 -19.319381 -5.364731 -3.928973 -32.627953 -30.045225 -12.342693 -5.056024 7.303137 0.879376 -13.470183 2.947559 -4.095852 7.933393 -0.574415 -8.532412 -6.403746 -1.304560 -18.554602 3.666546 -7.155835 1.270802 -43.322929 9.504325 2.779529 -11.630987 -2.544310 2.680509 -43.191151 -10.491223 2.223492 1.081913 -3.178494 0.531111 -8.728668 10.697450 -5.866538 -0.849787 1.495599 
